<svg width="139" height="50" viewBox="0 0 139 50" fill="none" xmlns="http://www.w3.org/2000/svg">
<path d="M6.60227 28L7.77557 24.1023H14.4972L15.6705 28H21.6364L14.9148 7.63636H7.35795L0.636364 28H6.60227ZM9.02841 19.9659L11.0568 13.2443H11.2159L13.2443 19.9659H9.02841ZM23.5977 28H37.359V23.5455H29.1261V7.63636H23.5977V28ZM45.1222 7.63636H39.5938V28H45.1222V7.63636ZM47.7422 28H53.2706V21.9545H56.3331C60.9766 21.9545 64.0888 19.2202 64.0888 14.8352C64.0888 10.5 61.0561 7.63636 56.532 7.63636H47.7422V28ZM53.2706 17.6591V12.0511H55.2195C57.1584 12.0511 58.3217 13.0852 58.3217 14.8352C58.3217 16.5753 57.1584 17.6591 55.2195 17.6591H53.2706ZM66.1172 28H71.6456V21.2784H73.5547L77.1342 28H83.1399L79.0036 20.4034C81.1712 19.3594 82.4638 17.3807 82.4638 14.5568C82.4638 10.2216 79.4311 7.63636 74.907 7.63636H66.1172V28ZM71.6456 16.983V12.0511H73.5945C75.5334 12.0511 76.6967 12.8068 76.6967 14.5568C76.6967 16.2969 75.5334 16.983 73.5945 16.983H71.6456ZM84.8203 28H99.4567V23.5455H90.3487V20.0455H98.7408V15.5909H90.3487V12.0909H99.4964V7.63636H84.8203V28ZM113.216 14H118.505C118.485 10.0028 115.403 7.35795 110.471 7.35795C105.629 7.35795 102.208 9.96307 102.238 13.8409C102.228 17.0227 104.436 18.7926 108.045 19.5682L110.074 20.0057C112.341 20.5028 113.116 21.0696 113.136 21.9943C113.116 22.9986 112.201 23.7045 110.431 23.7045C108.314 23.7045 107.061 22.7102 106.971 20.8409H101.721C101.741 25.9517 105.201 28.2386 110.511 28.2386C115.672 28.2386 118.764 26.0114 118.784 21.9943C118.764 18.892 116.914 16.7145 112.42 15.75L110.75 15.392C108.821 14.9844 107.956 14.4176 108.005 13.4432C108.015 12.5483 108.761 11.892 110.471 11.892C112.261 11.892 113.106 12.6776 113.216 14ZM131.864 14H137.154C137.134 10.0028 134.051 7.35795 129.12 7.35795C124.277 7.35795 120.857 9.96307 120.887 13.8409C120.877 17.0227 123.084 18.7926 126.694 19.5682L128.722 20.0057C130.989 20.5028 131.765 21.0696 131.784 21.9943C131.765 22.9986 130.85 23.7045 129.08 23.7045C126.962 23.7045 125.709 22.7102 125.62 20.8409H120.37C120.39 25.9517 123.85 28.2386 129.159 28.2386C134.32 28.2386 137.412 26.0114 137.432 21.9943C137.412 18.892 135.563 16.7145 131.069 15.75L129.398 15.392C127.469 14.9844 126.604 14.4176 126.654 13.4432C126.664 12.5483 127.409 11.892 129.12 11.892C130.909 11.892 131.755 12.6776 131.864 14Z" fill="white"/>
<path d="M55.4588 41.3281C55.2159 39.3125 53.6903 38.1534 51.6705 38.1534C49.3651 38.1534 47.6051 39.7812 47.6051 42.6364C47.6051 45.483 49.3352 47.1193 51.6705 47.1193C53.9077 47.1193 55.2585 45.6321 55.4588 44.0256L53.5923 44.017C53.4176 44.9503 52.6847 45.4872 51.7003 45.4872C50.375 45.4872 49.4759 44.5028 49.4759 42.6364C49.4759 40.821 50.3622 39.7855 51.7131 39.7855C52.723 39.7855 53.4517 40.3693 53.5923 41.3281H55.4588ZM58.1222 47L58.7699 45.0099H61.919L62.5668 47H64.544L61.5355 38.2727H59.1577L56.1449 47H58.1222ZM59.2386 43.5696L60.3125 40.267H60.3807L61.4545 43.5696H59.2386ZM65.5945 47H67.4396V43.9062H68.7862L70.4396 47H72.4766L70.6229 43.608C71.6158 43.1818 72.1655 42.3168 72.1655 41.1236C72.1655 39.3892 71.0192 38.2727 69.0376 38.2727H65.5945V47ZM67.4396 42.4233V39.7812H68.6839C69.7493 39.7812 70.2649 40.2543 70.2649 41.1236C70.2649 41.9886 69.7493 42.4233 68.6925 42.4233H67.4396ZM79.2564 41.0938H81.1314C80.8928 39.3679 79.3714 38.1534 77.3984 38.1534C75.093 38.1534 73.3161 39.8153 73.3161 42.6449C73.3161 45.4062 74.978 47.1193 77.4368 47.1193C79.6399 47.1193 81.2124 45.7259 81.2124 43.429V42.3295H77.5604V43.7188H79.4354C79.4098 44.8011 78.6726 45.4872 77.4453 45.4872C76.0604 45.4872 75.1868 44.4517 75.1868 42.6278C75.1868 40.8125 76.0945 39.7855 77.4283 39.7855C78.3786 39.7855 79.022 40.2756 79.2564 41.0938ZM90.6183 42.6364C90.6183 39.7812 88.8455 38.1534 86.5316 38.1534C84.2049 38.1534 82.445 39.7812 82.445 42.6364C82.445 45.4787 84.2049 47.1193 86.5316 47.1193C88.8455 47.1193 90.6183 45.4915 90.6183 42.6364ZM88.7475 42.6364C88.7475 44.4858 87.8697 45.4872 86.5316 45.4872C85.1893 45.4872 84.3157 44.4858 84.3157 42.6364C84.3157 40.7869 85.1893 39.7855 86.5316 39.7855C87.8697 39.7855 88.7475 40.7869 88.7475 42.6364Z" fill="white"/>
</svg>
